#!OML:ASF F:\VICON\USERDATA\INSTALL\rory3\rory3.ASF
:FULLY-SPECIFIED
:DEGREES
64
root -0.16494595864608044 17.49110722100707 38.83421679211088 0.6121927551437678 5.35810061578601 -2.6055351556258057
lfemur -22.444661781622038 -0.739785323278439 -23.967805943972603
ltibia 36.5979482520858
lfoot -9.981059931213336 -8.552678091983022
ltoes 0.9902617979661432
rfemur -2.6145360353252762 -1.1271774769719647 27.07625566737552
rtibia 92.67712749770229
rfoot 16.687786094324444 -10.954530428584876
rtoes 13.544435623427638
lowerback 15.249040710410728 2.385372187525351 2.2882265367240304
upperback -0.574330345265253 3.6702317440516823 0.47594026912617826
thorax -9.243470374025332 1.631463357932514 -1.7175236982285278
lowerneck -19.462361634734552 -4.7981572852431835 -2.4083101684360786
upperneck 14.527905884553777 -6.624557007988805 3.977047036422576
head 7.916065412303327 -2.8742036511341142 0.9561761845788896
lclavicle -7.712202160966339e-16 2.478216523084251e-15
lhumerus -61.64778773997727 -7.884928485044871 98.72181792978331
lradius 112.56801614946232
lwrist 31.315615663571755
lhand -25.36089291783143 2.83452631461292
lfingers 7.12502
lthumb 1.1629580689432863 32.821614996059935
rclavicle -7.712202160966339e-16 2.478216523084251e-15
rhumerus -43.59288359632397 11.525440803736531 -98.79909655231498
rradius 105.51261893139021
rwrist -8.440416037225397
rhand -16.982261211029883 38.41396992833329
rfingers 7.12502
rthumb 9.252209370726144 9.221142511947978
65
root -0.1987764631549537 17.243641297343828 40.16161861787318 0.4815150975739044 5.5891460636084025 -1.4313332902155564
lfemur -19.84952839943253 -1.1267706463874967 -25.21897733376451
ltibia 41.73504745227295
lfoot -14.50639351848556 -5.534881447605608
ltoes 3.0597257879559105
rfemur -7.688250713098338 -2.8092091107839727 24.54609427160865
rtibia 101.16032195759126
rfoot 15.195540906400753 -10.347715553360416
rtoes 14.82058618177476
lowerback 15.830279468009431 2.2733776591664867 0.949535361790447
upperback -0.2680929931161271 3.2581526541738604 0.13978540431342523
thorax -9.385149598934087 1.4881604372188413 -0.9472470328106705
lowerneck -19.77184620454615 -4.710591983702228 -2.297730089239122
upperneck 14.454850678295022 -6.542333820592919 4.156722134391221
head 7.931397907282737 -2.8087987178054608 1.0143485893400832
lclavicle -8.012803120045396e-17 2.97948839285226e-15
lhumerus -56.76068600896603 -10.233730099430847 99.61740912529673
lradius 111.7308745542162
lwrist 31.935372855150796
lhand -25.689900269905234 3.5726579268191454
lfingers 7.12502
lthumb 0.8452056469707461 33.56033578474231
rclavicle -8.012803120045396e-17 2.97948839285226e-15
rhumerus -44.49185632400779 9.90519628762776 -99.49610670535985
rradius 103.56660192155175
rwrist -7.869781154889019
rhand -16.964230002785843 38.31992508096013
rfingers 7.12502
rthumb 9.269566298735056 9.102536095133189
66
root -0.23505009623636045 17.008497843040683 40.666963025460745 0.5242037053616087 5.450187627701817 -0.41748304729930164
lfemur -17.824652830686798 -1.728760707746329 -26.60228992427693
ltibia 45.18912004597518
lfoot -19.070626408106893 -2.374891128904368
ltoes 2.882818760506355
rfemur -14.390600307769802 -4.366311741714073 22.06398437904508
rtibia 107.7100436533622
rfoot 13.237653700735962 -9.372230082413662
rtoes 15.571842169157794
lowerback 16.251986847874367 2.1237453086025355 -0.4434615769021999
upperback -0.05589338433376967 2.777447287817266 -0.22215880441789926
thorax -9.53888947009344 1.3171201342504801 -0.34135713312045
lowerneck -20.25074941514661 -4.633501638656609 -2.2031885261169313
upperneck 14.292765611209909 -6.468781835790601 4.26258426873655
head 7.933676500606883 -2.7497800836568542 1.0483183866430108
lclavicle -4.526074670706547e-16 2.7093168209560716e-15
lhumerus -52.063933417195614 -12.92261218431727 100.22008344764198
lradius 110.32990238085239
lwrist 32.42286348545737
lhand -25.960100288278568 4.011415419656191
lfingers 7.12502
lthumb 0.5842567055398563 33.999186833135894
rclavicle -4.526074670706547e-16 2.7093168209560716e-15
rhumerus -45.98006735337154 8.084560060533926 -100.24321473192346
rradius 101.82048496432942
rwrist -7.6545088638881715
rhand -16.990791365891994 38.219444670169345
rfingers 7.12502
rthumb 9.243902179548993 8.976067762596347
67
root -0.25832867446496244 16.841026678481462 41.42715925509293 0.827512405935134 5.153985482784495 0.41290562544059783
lfemur -15.002191101451196 -2.2392976646919402 -27.531701669749907
ltibia 47.827091141072685
lfoot -22.267458535808228 0.6275529133766682
ltoes 1.3711163516872755
rfemur -21.14253169028012 -5.520148534074352 20.307526114546956
rtibia 112.92642221340307
rfoot 11.397821018931403 -8.098069770193339
rtoes 15.701695562344586
lowerback 16.59080055492265 1.9729248332771538 -1.5232818100650365
upperback 0.08374761851997925 2.3434255370556913 -0.4574895623803559
thorax -9.668496554695428 1.159468685698088 0.26438480887844584
lowerneck -20.755981428931932 -4.493032557562098 -2.1128878851997914
upperneck 14.106707553064924 -6.289660165435655 4.327497891534937
head 7.932552597530681 -2.6484920358354374 1.0760518392462708
lclavicle -3.7017685942370793e-16 2.7691064415180216e-15
lhumerus -47.07260395734449 -15.244150442117105 100.50040482807952
lradius 108.98481289649706
lwrist 32.72916726044537
lhand -26.022673819540504 4.124018593201013
lfingers 7.12502
lthumb 0.5238356007323441 34.113138551232666
rclavicle -3.7017685942370793e-16 2.7691064415180216e-15
rhumerus -47.470817681428336 6.6315193270081005 -100.80476505056514
rradius 100.8533670662598
rwrist -7.862586074091927
rhand -16.903915165848392 38.21298053799671
rfingers 7.12502
rthumb 9.327720225023851 8.938056120392757
